<?xml version="1.0" encoding="UTF-8"?>
<svg width="934px" height="149px" viewBox="0 0 934 149" version="1.1" xmlns="http://www.w3.org/2000/svg" xmlns:xlink="http://www.w3.org/1999/xlink">
    <!-- Generator: Sketch 43.2 (39069) - http://www.bohemiancoding.com/sketch -->
    <title>Group 2</title>
    <desc>Created with Sketch.</desc>
    <defs></defs>
    <g id="Grid" stroke="none" stroke-width="1" fill="none" fill-rule="evenodd">
        <g id="Homepage-V1-Copy-3" transform="translate(-253.000000, -277.000000)">
            <g id="Group-2" transform="translate(253.000000, 277.000000)">
                <g id="Page-1" fill="#00FFEB">
                    <path d="M20.5649368,127.58816 C6.8540985,113.46296 -0.00012005988,96.14936 -0.00012005988,75.64976 C-0.00012005988,55.15016 6.82408353,37.76816 20.4712901,23.50376 C34.1184967,9.23816 51.1165746,2.10656 71.4655237,2.10656 C82.1340446,2.10656 92.3619458,4.43816 102.148027,9.09896 C111.935308,13.76216 120.131796,20.36576 126.738691,28.91216 L113.385631,42.21296 C103.334218,28.15496 89.6726045,21.14096 72.3947871,21.17216 C56.5132662,21.17216 43.843347,26.29256 34.3826284,36.53576 C24.9219099,46.77776 20.1915506,59.74616 20.1915506,75.44096 C20.1915506,91.13696 24.9927452,104.10536 34.5927332,114.34736 C44.1927213,124.58936 57.118368,129.71096 73.3720746,129.71096 C90.6486913,129.71096 104.295898,122.69696 114.314895,108.67016 L127.667955,121.92536 C121.06106,130.47056 112.864572,137.08256 103.079691,141.76016 C93.2924099,146.43776 83.0657093,148.77656 72.3947871,148.77656 C51.5511913,148.77656 34.273374,141.71336 20.5649368,127.58816" id="Fill-1"></path>
                    <path d="M151.49816,87.81116 L197.233771,87.81116 C196.736723,82.95716 194.387151,78.89036 190.185055,75.61316 C185.981759,72.33596 181.025687,70.69796 175.319241,70.69796 C162.879837,70.66676 154.940277,76.37156 151.49816,87.81116 M131.491382,100.07516 C131.491382,86.40356 135.647855,75.22916 143.960801,66.55316 C152.272546,57.87716 162.72616,53.53796 175.319241,53.53796 C187.011873,53.53796 196.922816,57.78236 205.049669,66.26876 C213.175322,74.75516 217.239349,85.70756 217.239349,99.12476 L215.327996,104.97116 L150.380403,104.97116 C150.380403,111.94676 152.698759,117.81356 157.336672,122.57276 C161.973385,127.33196 168.232106,129.71036 176.110436,129.71036 C181.569558,129.71036 186.237487,128.47796 190.11422,126.01316 C193.992154,123.54836 196.704307,120.34796 198.256681,116.41076 L214.260663,123.98996 C205.483085,139.24316 192.455388,146.87036 175.179972,146.87036 C162.989091,146.87036 152.66154,142.47356 144.192516,133.67996 C135.724693,124.88636 131.491382,113.68556 131.491382,100.07516" id="Fill-4"></path>
                    <polygon id="Fill-6" points="227.712772 127.8038 227.712772 0.1994 246.601793 0.1994 246.601793 127.8038 248.509545 144.9638 229.606117 144.9638"></polygon>
                    <path d="M278.200113,87.81116 L323.935724,87.81116 C323.438676,82.95716 321.089104,78.89036 316.887008,75.61316 C312.683712,72.33596 307.72764,70.69796 302.021194,70.69796 C289.58179,70.66676 281.64223,76.37156 278.200113,87.81116 M258.193335,100.07516 C258.193335,86.40356 262.349808,75.22916 270.662754,66.55316 C278.974499,57.87716 289.428113,53.53796 302.021194,53.53796 C313.713826,53.53796 323.624769,57.78236 331.751622,66.26876 C339.877275,74.75516 343.941302,85.70756 343.941302,99.12476 L342.029949,104.97116 L277.082356,104.97116 C277.082356,111.94676 279.400712,117.81356 284.038625,122.57276 C288.675338,127.33196 294.934059,129.71036 302.812389,129.71036 C308.271511,129.71036 312.93944,128.47796 316.816173,126.01316 C320.694107,123.54836 323.40626,120.34796 324.958634,116.41076 L340.962616,123.98996 C332.185038,139.24316 319.157341,146.87036 301.881925,146.87036 C289.691044,146.87036 279.363493,142.47356 270.894469,133.67996 C262.426646,124.88636 258.193335,113.68556 258.193335,100.07516" id="Fill-9"></path>
                    <path d="M379.393904,79.25468 C374.186907,84.95948 371.584009,91.94228 371.584009,100.20428 C371.584009,108.46628 374.186907,115.45028 379.393904,121.15388 C384.600901,126.85868 391.201793,129.70988 399.197781,129.70988 C407.968155,129.70988 414.762344,126.91988 419.582748,121.33988 C424.400751,115.75988 426.810353,108.71468 426.810353,100.20428 C426.810353,91.69388 424.400751,84.64868 419.582748,79.06868 C414.762344,73.48748 407.968155,70.69748 399.197781,70.69748 C391.201793,70.69748 384.600901,73.55108 379.393904,79.25468 L379.393904,79.25468 Z M354.415446,144.96308 L354.415446,0.19988 L373.305667,0.19988 L373.305667,63.07148 L374.467847,64.00148 L375.398311,63.07148 C381.750679,56.71628 390.009599,53.53868 400.175069,53.53868 C412.834182,53.53868 423.586745,57.91748 432.431557,66.67508 C441.277569,75.43388 445.700575,86.60948 445.700575,100.20428 C445.700575,113.79908 441.269164,124.97588 432.408745,133.73228 C423.545925,142.49108 412.801766,146.86988 400.175069,146.86988 C390.009599,146.86988 381.750679,143.69228 375.398311,137.33708 L374.467847,136.40708 L373.305667,137.33708 L371.584009,144.96308 L354.415446,144.96308 Z" id="Fill-11"></path>
                    <path d="M457.290915,144.96356 L457.290915,55.44476 L474.459478,55.44476 L476.179936,64.97876 L477.162026,65.90876 L478.096092,64.97876 C483.827751,57.35156 490.852454,53.53796 499.170203,53.53796 C503.001313,53.53796 506.193706,54.17396 508.74858,55.44476 L508.74858,72.60476 L497.254047,72.60476 C491.647251,72.60476 486.802834,74.56556 482.721999,78.48716 C478.639963,82.40996 476.460876,87.17636 476.179936,92.78756 L476.179936,144.96356 L457.290915,144.96356 Z" id="Fill-14"></path>
                    <path d="M536.827104,79.06844 C531.94667,84.64844 529.504652,91.69364 529.504652,100.20404 C529.504652,108.71444 531.952673,115.75964 536.849916,121.33964 C541.747158,126.91964 548.564158,129.71084 557.305718,129.71084 C565.300505,129.71084 571.901398,126.85844 577.108395,121.15364 C582.315392,115.45004 584.91829,108.46724 584.91829,100.20404 C584.91829,91.94324 582.315392,84.95924 577.108395,79.25444 C571.901398,73.55084 565.300505,70.69724 557.305718,70.69724 C548.534143,70.69724 541.707538,73.48844 536.827104,79.06844 M523.951883,133.73324 C515.061449,124.97564 510.615631,113.79884 510.615631,100.20404 C510.615631,86.61044 515.061449,75.43364 523.951883,66.67484 C532.843517,57.91844 543.651308,53.53844 556.375254,53.53844 C566.539523,53.53844 574.782835,56.71724 581.106389,63.07124 L582.081275,64.00124 L583.011739,63.07124 L584.91829,55.44524 L602.085652,55.44524 L602.085652,144.96404 L584.91829,144.96404 L583.011739,137.33684 L582.081275,136.40684 L581.106389,137.33684 C574.75282,143.69324 566.509508,146.86964 556.375254,146.86964 C543.651308,146.86964 532.843517,142.49204 523.951883,133.73324" id="Fill-16"></path>
                    <path d="M613.487259,72.60428 L613.487259,55.44548 L630.841914,55.44548 L630.841914,36.37868 L645.86981,17.35868 L649.498019,17.35868 L649.498019,55.44548 L668.760426,55.44548 L668.760426,72.60428 L649.498019,72.60428 L649.498019,118.31708 C649.498019,121.10708 650.390064,123.38588 652.174154,125.15348 C653.957043,126.91988 656.306615,127.80428 659.222869,127.80428 L670.668178,125.89748 L670.668178,143.05628 L660.153334,144.96308 C650.630184,144.96308 643.36416,142.67828 638.355262,138.10388 C633.346363,133.53188 630.841914,126.93668 630.841914,118.31708 L630.841914,72.60428 L613.487259,72.60428 Z" id="Fill-18"></path>
                    <path d="M697.309946,87.81116 L743.045556,87.81116 C742.548508,82.95716 740.198937,78.89036 735.996841,75.61316 C731.793544,72.33596 726.837472,70.69796 721.131026,70.69796 C708.691622,70.66676 700.752062,76.37156 697.309946,87.81116 M677.303167,100.07516 C677.303167,86.40356 681.45964,75.22916 689.772586,66.55316 C698.084332,57.87716 708.537946,53.53796 721.131026,53.53796 C732.823658,53.53796 742.734601,57.78236 750.861454,66.26876 C758.987107,74.75516 763.051134,85.70756 763.051134,99.12476 L761.139781,104.97116 L696.192188,104.97116 C696.192188,111.94676 698.510544,117.81356 703.148457,122.57276 C707.78517,127.33196 714.043892,129.71036 721.922221,129.71036 C727.381344,129.71036 732.049272,128.47796 735.926005,126.01316 C739.80394,123.54836 742.516092,120.34796 744.068466,116.41076 L760.072449,123.98996 C751.294871,139.24316 738.267173,146.87036 720.991757,146.87036 C708.800877,146.87036 698.473326,142.47356 690.004302,133.67996 C681.536478,124.88636 677.303167,113.68556 677.303167,100.07516" id="Fill-20"></path>
                    <polygon id="Fill-22" points="777.336099 5.91932 798.320165 5.91932 796.551683 54.73172 788.977105 111.05972 785.236039 111.05972 777.661461 54.73172"></polygon>
                    <path d="M801.17807,133.77332 C801.17807,141.39452 794.996187,147.57332 787.371184,147.57332 C779.746181,147.57332 773.564298,141.39452 773.564298,133.77332 C773.564298,126.15212 779.746181,119.97332 787.371184,119.97332 C794.996187,119.97332 801.17807,126.15212 801.17807,133.77332" id="Fill-24"></path>
                </g>
                <g id="Page-1-Copy-3" transform="translate(823.000000, 30.000000)">
                    <polygon id="Fill-1" fill="#D6A57C" points="19.5336214 48.1806588 30.7786049 48.1806588 30.7786049 56.7886417 19.5336214 56.7886417"></polygon>
                    <g id="Group-33" transform="translate(0.000000, 0.000970)">
                        <path d="M12.0757884,80.7017543 L12.0757884,113.971075 L22.4006749,113.971075 C22.4006749,91.6466057 24.0642259,88.727461 24.0642259,88.727461 L26.2480005,88.727461 C26.2480005,88.727461 27.9115515,91.6466057 27.9115515,113.971075 L38.2344968,113.971075 L38.2344968,80.7017543 L12.0757884,80.7017543 Z" id="Fill-2" fill="#49426E"></path>
                        <path d="M39.5001155,52.6069282 L30.7786049,52.6069282 C30.7786049,54.3751069 28.2667788,55.8210928 25.1590249,55.8210928 C22.0532121,55.8210928 19.5336214,54.3751069 19.5336214,52.6069282 L10.8121108,52.6069282 L12.0757884,80.6998133 L38.2383791,80.6998133 L39.5001155,52.6069282 L39.5001155,52.6069282 Z" id="Fill-4" fill="#F26C77"></path>
                        <path d="M52.8143319,83.4028446 L36.9358788,57.0283454 C34.5948724,53.1833817 39.6767586,50.7514081 42.0255296,54.5905491 L56.9062552,79.0170352 L52.8143319,83.4028446 Z" id="Fill-6" fill="#F26C77"></path>
                        <path d="M27.8863167,113.041374 C29.7109818,110.885011 36.4078906,110.885011 38.2383791,113.041374 L38.2383791,117.059079 L27.8863167,117.059079 L27.8863167,113.041374 Z" id="Path" fill="#F26C77"></path>
                        <path d="M22.4297919,113.041374 C20.6012446,110.885011 13.9062768,110.885011 12.0757884,113.041374 L12.0757884,117.059079 L22.4297919,117.059079 L22.4297919,113.041374 Z" id="Path" fill="#F26C77"></path>
                        <path d="M2.45165099,82.8270623 L7.84605961,55.4037949 C8.6923936,51.0930101 14.360502,52.0479431 13.5083446,56.3606687 L8.10811256,83.7800544 L2.45165099,82.8270623 Z" id="Fill-10" fill="#F26C77"></path>
                        <path d="M2.45165099,82.8270623 C1.42479163,88.0248478 2.63411749,88.5353099 4.19672956,88.7934523 C5.76516502,89.0632403 7.0870766,88.9875444 8.10811256,83.7781134 L2.45165099,82.8270623 Z" id="Fill-12" fill="#D6A57C"></path>
                        <polygon id="Fill-14" fill="#FFE1BD" points="80.2233362 56.7876713 91.4683197 56.7876713 91.4683197 48.1796883 80.2233362 48.1796883"></polygon>
                        <path d="M98.9242116,80.7017543 L98.9242116,113.971075 L88.597384,113.971075 C88.597384,91.6466057 86.933833,88.727461 86.933833,88.727461 L84.7539406,88.727461 C84.7539406,88.727461 83.0865074,91.6466057 83.0865074,113.971075 L72.7674443,113.971075 L72.7674443,80.7017543 L98.9242116,80.7017543 Z" id="Fill-16" fill="#49426E"></path>
                        <path d="M88.5702081,113.041374 C90.3968143,110.885011 97.0937232,110.885011 98.9242116,113.041374 L98.9242116,117.059079 L88.5702081,117.059079 L88.5702081,113.041374 Z M83.1156244,113.041374 C81.2890182,110.885011 74.5921094,110.885011 72.7655032,113.041374 L72.7655032,117.059079 L83.1156244,117.059079 L83.1156244,113.041374 Z" id="Fill-17" fill="#4990E2"></path>
                        <path d="M71.4979433,52.6069282 L80.2213951,52.6069282 C80.2213951,54.3751069 82.7351623,55.8210928 85.8409751,55.8210928 C88.9467879,55.8210928 91.4663786,54.3751069 91.4663786,52.6069282 L100.182066,52.6069282 L98.9242116,80.6998133 L72.7655032,80.6998133 L71.4979433,52.6069282 Z" id="Fill-18" fill="#4990E2"></path>
                        <path d="M59.1736899,81.4509496 L74.0660623,57.0283454 C76.4051276,53.1833817 71.3251825,50.7514081 68.9744704,54.5905491 L54.0937448,79.0170352 L59.1736899,81.4509496" id="Fill-19" fill="#4990E2"></path>
                        <path d="M59.1736899,81.4509496 C56.3532236,86.0839271 55.0526645,85.8063755 53.6453431,85.134817 C52.2380217,84.4593766 51.265514,83.6558354 54.0937448,79.0170352 L59.1736899,81.4509496 Z" id="Fill-20" fill="#FFE1BD"></path>
                        <path d="M108.546408,82.8270623 L103.151999,55.4037949 C102.305665,51.0930101 96.639498,52.0479431 97.4877732,56.3606687 L102.889946,83.7781134 L108.546408,82.8270623" id="Fill-21" fill="#4990E2"></path>
                        <path d="M108.546408,82.8270623 C109.573267,88.0248478 108.360059,88.5353099 106.80327,88.7934523 C105.232894,89.0632403 103.910982,88.9875444 102.889946,83.7781134 L108.546408,82.8270623" id="Fill-22" fill="#FFE1BD"></path>
                        <path d="M3.84926675,30.0592534 L46.4571362,30.0592534 L48.3148005,25.2632385 C48.3148005,8.06668177 44.3257722,0.780465748 25.3550793,0.605782892 C6.19027315,0.429159116 1.39761576,8.06085901 1.39761576,25.567963 L3.84926675,30.0592534 Z" id="Fill-23" fill="#594640"></path>
                        <path d="M45.9155601,27.7301486 C45.4108655,28.673436 44.3859473,29.213012 44.3859473,29.213012 C44.3859473,29.213012 44.6654704,27.2934415 44.5664727,24.6072073 C43.4969084,8.75764951 42.5729291,16.3718811 25.1570837,16.3718811 C7.74900296,16.3718811 6.81920025,8.76347227 5.74769483,24.5839163 C5.65063818,27.2856778 5.92433793,29.213012 5.92433793,29.213012 C5.92433793,29.213012 4.8994197,28.6753769 4.39860739,27.7301486 C4.1171431,27.2041591 3.91526527,26.2686354 3.76773916,25.2768249 C2.12165837,24.8439996 0,25.2069518 0,29.9641482 C0,32.9221113 1.08121108,35.350203 4.7286,35.6161091 C6.00974778,45.5245089 19.2269224,52.1411073 25.1570837,52.1411073 C31.0794805,52.1411073 44.3005374,45.5264498 45.5855675,35.6161091 C49.2329564,35.350203 50.3161086,32.9221113 50.3161086,29.9641482 C50.3141675,25.2069518 48.190568,24.8439996 46.5464283,25.2768249 C46.39502,26.2686354 46.191201,27.2022182 45.9155601,27.7301486 Z" id="Fill-24" fill="#D6A57C"></path>
                        <path d="M16.2201074,26.7829793 C18.2388857,26.7829793 19.877202,28.4211163 19.877202,30.4396738 C19.877202,32.4601722 18.2388857,34.0963682 16.2201074,34.0963682 C14.1993879,34.0963682 12.5630128,32.4601722 12.5630128,30.4396738 C12.5630128,28.4211163 14.1993879,26.7829793 16.2201074,26.7829793" id="Fill-25" fill="#594640"></path>
                        <path d="M34.092119,26.7829793 C36.1108973,26.7829793 37.7492135,28.4211163 37.7492135,30.4396738 C37.7492135,32.4601722 36.1108973,34.0963682 34.092119,34.0963682 C32.0713995,34.0963682 30.4350244,32.4601722 30.4350244,30.4396738 C30.4350244,28.4211163 32.0713995,26.7829793 34.092119,26.7829793" id="Fill-26" fill="#594640"></path>
                        <path d="M30.9940707,41.5922037 C27.2321549,44.5268757 23.0567778,44.5074665 19.3142734,41.5922037 C18.8639305,41.2408971 18.4543515,41.8503461 18.7629916,42.4132131 C19.9024367,44.5074665 22.2065616,46.376573 25.1532015,46.376573 C28.1017825,46.376573 30.4059074,44.5074665 31.5453525,42.4132131 C31.8539926,41.8484052 31.4444135,41.2408971 30.9940707,41.5922037" id="Fill-27" fill="#594640"></path>
                        <path d="M64.5350993,30.0592534 L107.14491,30.0592534 L108.998692,25.2632385 C108.998692,8.06668177 105.009664,0.780465748 86.042853,0.605782892 C66.8780468,0.429159116 62.0853894,8.06085901 62.0853894,25.567963 L64.5350993,30.0592534 Z" id="Fill-28" fill="#594640"></path>
                        <path d="M107.232261,25.2768249 C107.080852,26.2686354 106.875092,27.2022182 106.599451,27.7301486 C106.094757,28.673436 105.07178,29.213012 105.07178,29.213012 C105.07178,29.213012 105.349362,27.2934415 105.250364,24.6072073 C104.1808,8.75764951 103.260703,16.3718811 85.8429163,16.3718811 C68.4328943,16.3718811 67.5050328,8.76347227 66.4354685,24.5839163 C66.3364707,27.2856778 66.6101704,29.213012 66.6101704,29.213012 C66.6101704,29.213012 65.5871933,28.6753769 65.086381,27.7301486 C64.8049167,27.2041591 64.6010978,26.2686354 64.4535717,25.2768249 C62.8074909,24.8420587 60.6897148,25.2069518 60.6897148,29.9641482 C60.6897148,32.9221113 61.7709259,35.350203 65.4183148,35.6161091 C66.6994626,45.5245089 79.9166372,52.1411073 85.8448574,52.1411073 C91.7672542,52.1411073 104.98637,45.5264498 106.2714,35.6161091 C109.914907,35.3521439 111,32.9240522 111,29.9641482 C111,25.2069518 108.8764,24.8439996 107.232261,25.2768249" id="Fill-29" fill="#FFE1BD"></path>
                        <path d="M76.907881,34.1060729 C74.8852204,34.1041319 73.2469042,32.4659949 73.2488453,30.4435556 C73.2488453,28.4133527 74.8832793,26.7713338 76.907881,26.7713338 C78.9266594,26.7713338 80.5591522,28.4133527 80.5591522,30.4396738 C80.5630345,32.4601722 78.9286005,34.102191 76.907881,34.1060729 Z" id="Fill-30" fill="#594640"></path>
                        <path d="M94.7798926,26.7829793 C96.8006121,26.7829793 98.4369872,28.4211163 98.4369872,30.4396738 C98.4369872,32.4601722 96.8006121,34.0963682 94.7798926,34.0963682 C92.7611143,34.0963682 91.122798,32.4601722 91.122798,30.4396738 C91.122798,28.4211163 92.7611143,26.7829793 94.7798926,26.7829793" id="Fill-31" fill="#594640"></path>
                        <path d="M91.6799032,41.5922037 C87.9179874,44.5268757 83.7406692,44.5074665 79.9981648,41.5922037 C79.5517042,41.2408971 79.1421251,41.8503461 79.4488241,42.4132131 C80.5902103,44.5074665 82.890453,46.376573 85.8370929,46.376573 C88.787615,46.376573 91.0917399,44.5074665 92.2331261,42.4132131 C92.5359429,41.8484052 92.1302461,41.2408971 91.6799032,41.5922037" id="Fill-32" fill="#594640"></path>
                    </g>
                </g>
            </g>
        </g>
    </g>
</svg>