<?xml version="1.0" encoding="utf-8"?>
<!-- Generator: Adobe Illustrator 19.2.0, SVG Export Plug-In . SVG Version: 6.00 Build 0)  -->
<svg version="1.1" id="Layer_1" xmlns="http://www.w3.org/2000/svg" xmlns:xlink="http://www.w3.org/1999/xlink" x="0px" y="0px"
	 viewBox="0 0 111 118" style="enable-background:new 0 0 111 118;" xml:space="preserve">
<style type="text/css">
	.st0{fill:#D6A57C;}
	.st1{fill:#49426E;}
	.st2{fill:#F26C77;}
	.st3{fill:#FFE1BD;}
	.st4{fill:#4990E2;}
	.st5{fill:#594640;}
</style>
<title>Page 1 Copy 3</title>
<desc>Created with Sketch.</desc>
<g id="Grid">
	<g id="Homepage-V1-Copy-3" transform="translate(-1076.000000, -307.000000)">
		<g id="Page-1-Copy-3" transform="translate(1076.000000, 307.000000)">
			<polygon id="Fill-1" class="st0" points="19.5,48.2 30.8,48.2 30.8,56.8 19.5,56.8 			"/>
			<g id="Group-33" transform="translate(0.000000, 0.000970)">
				<path id="Fill-2" class="st1" d="M12.1,80.7V114h10.3c0-22.3,1.7-25.2,1.7-25.2h2.2c0,0,1.7,2.9,1.7,25.2h10.3V80.7H12.1z"/>
				<path id="Fill-4" class="st2" d="M39.5,52.6h-8.7c0,1.8-2.5,3.2-5.6,3.2c-3.1,0-5.6-1.4-5.6-3.2h-8.7l1.3,28.1h26.2L39.5,52.6
					L39.5,52.6z"/>
				<path id="Fill-6" class="st2" d="M52.8,83.4L36.9,57c-2.3-3.8,2.7-6.3,5.1-2.4L56.9,79L52.8,83.4z"/>
				<path id="Path" class="st2" d="M27.9,113c1.8-2.2,8.5-2.2,10.4,0v4H27.9V113z"/>
				<path id="Path_1_" class="st2" d="M22.4,113c-1.8-2.2-8.5-2.2-10.4,0v4h10.4V113z"/>
				<path id="Fill-10" class="st2" d="M2.5,82.8l5.4-27.4c0.8-4.3,6.5-3.4,5.7,1L8.1,83.8L2.5,82.8z"/>
				<path id="Fill-12" class="st0" d="M2.5,82.8c-1,5.2,0.2,5.7,1.7,6c1.6,0.3,2.9,0.2,3.9-5L2.5,82.8z"/>
				<polygon id="Fill-14" class="st3" points="80.2,56.8 91.5,56.8 91.5,48.2 80.2,48.2 				"/>
				<path id="Fill-16" class="st1" d="M98.9,80.7V114H88.6c0-22.3-1.7-25.2-1.7-25.2h-2.2c0,0-1.7,2.9-1.7,25.2H72.8V80.7H98.9z"/>
				<path id="Fill-17" class="st4" d="M88.6,113c1.8-2.2,8.5-2.2,10.4,0v4H88.6V113z M83.1,113c-1.8-2.2-8.5-2.2-10.4,0v4h10.4V113z
					"/>
				<path id="Fill-18" class="st4" d="M71.5,52.6h8.7c0,1.8,2.5,3.2,5.6,3.2s5.6-1.4,5.6-3.2h8.7l-1.3,28.1H72.8L71.5,52.6z"/>
				<path id="Fill-19" class="st4" d="M59.2,81.5L74.1,57c2.3-3.8-2.7-6.3-5.1-2.4L54.1,79L59.2,81.5"/>
				<path id="Fill-20" class="st3" d="M59.2,81.5c-2.8,4.6-4.1,4.4-5.5,3.7c-1.4-0.7-2.4-1.5,0.4-6.1L59.2,81.5z"/>
				<path id="Fill-21" class="st4" d="M108.5,82.8l-5.4-27.4c-0.8-4.3-6.5-3.4-5.7,1l5.4,27.4L108.5,82.8"/>
				<path id="Fill-22" class="st3" d="M108.5,82.8c1,5.2-0.2,5.7-1.7,6c-1.6,0.3-2.9,0.2-3.9-5L108.5,82.8"/>
				<path id="Fill-23" class="st5" d="M3.8,30.1h42.6l1.9-4.8c0-17.2-4-24.5-23-24.7c-19.2-0.2-24,7.5-24,25L3.8,30.1z"/>
				<path id="Fill-24" class="st0" d="M45.9,27.7c-0.5,0.9-1.5,1.5-1.5,1.5s0.3-1.9,0.2-4.6c-1.1-15.8-2-8.2-19.4-8.2
					c-17.4,0-18.3-7.6-19.4,8.2c-0.1,2.7,0.2,4.6,0.2,4.6s-1-0.5-1.5-1.5c-0.3-0.5-0.5-1.5-0.6-2.5C2.1,24.8,0,25.2,0,30
					c0,3,1.1,5.4,4.7,5.7C6,45.5,19.2,52.1,25.2,52.1c5.9,0,19.1-6.6,20.4-16.5c3.6-0.3,4.7-2.7,4.7-5.7c0-4.8-2.1-5.1-3.8-4.7
					C46.4,26.3,46.2,27.2,45.9,27.7z"/>
				<path id="Fill-25" class="st5" d="M16.2,26.8c2,0,3.7,1.6,3.7,3.7c0,2-1.6,3.7-3.7,3.7c-2,0-3.7-1.6-3.7-3.7
					C12.6,28.4,14.2,26.8,16.2,26.8"/>
				<path id="Fill-26" class="st5" d="M34.1,26.8c2,0,3.7,1.6,3.7,3.7c0,2-1.6,3.7-3.7,3.7c-2,0-3.7-1.6-3.7-3.7
					C30.4,28.4,32.1,26.8,34.1,26.8"/>
				<path id="Fill-27" class="st5" d="M31,41.6c-3.8,2.9-7.9,2.9-11.7,0c-0.5-0.4-0.9,0.3-0.6,0.8c1.1,2.1,3.4,4,6.4,4
					c2.9,0,5.3-1.9,6.4-4C31.9,41.8,31.4,41.2,31,41.6"/>
				<path id="Fill-28" class="st5" d="M64.5,30.1h42.6l1.9-4.8c0-17.2-4-24.5-23-24.7c-19.2-0.2-24,7.5-24,25L64.5,30.1z"/>
				<path id="Fill-29" class="st3" d="M107.2,25.3c-0.2,1-0.4,1.9-0.6,2.5c-0.5,0.9-1.5,1.5-1.5,1.5s0.3-1.9,0.2-4.6
					c-1.1-15.8-2-8.2-19.4-8.2c-17.4,0-18.3-7.6-19.4,8.2c-0.1,2.7,0.2,4.6,0.2,4.6s-1-0.5-1.5-1.5c-0.3-0.5-0.5-1.5-0.6-2.5
					c-1.6-0.4-3.8-0.1-3.8,4.7c0,3,1.1,5.4,4.7,5.7c1.3,9.9,14.5,16.5,20.4,16.5c5.9,0,19.1-6.6,20.4-16.5c3.6-0.3,4.7-2.7,4.7-5.7
					C111,25.2,108.9,24.8,107.2,25.3"/>
				<path id="Fill-30" class="st5" d="M76.9,34.1c-2,0-3.7-1.6-3.7-3.7c0-2,1.6-3.7,3.7-3.7c2,0,3.7,1.6,3.7,3.7
					C80.6,32.5,78.9,34.1,76.9,34.1z"/>
				<path id="Fill-31" class="st5" d="M94.8,26.8c2,0,3.7,1.6,3.7,3.7c0,2-1.6,3.7-3.7,3.7c-2,0-3.7-1.6-3.7-3.7
					C91.1,28.4,92.8,26.8,94.8,26.8"/>
				<path id="Fill-32" class="st5" d="M91.7,41.6c-3.8,2.9-7.9,2.9-11.7,0c-0.4-0.4-0.9,0.3-0.5,0.8c1.1,2.1,3.4,4,6.4,4
					c3,0,5.3-1.9,6.4-4C92.5,41.8,92.1,41.2,91.7,41.6"/>
			</g>
		</g>
	</g>
</g>
</svg>
