<?xml version="1.0" encoding="UTF-8"?>
<svg width="114px" height="106px" viewBox="0 0 114 106" version="1.1" xmlns="http://www.w3.org/2000/svg" xmlns:xlink="http://www.w3.org/1999/xlink">
    <!-- Generator: Sketch 43.2 (39069) - http://www.bohemiancoding.com/sketch -->
    <title>Page 1</title>
    <desc>Created with Sketch.</desc>
    <defs></defs>
    <g id="Grid" stroke="none" stroke-width="1" fill="none" fill-rule="evenodd">
        <g id="Homepage-V1-Copy-3" transform="translate(-663.000000, -6318.000000)">
            <g id="Gifts" transform="translate(0.000000, 6186.000000)">
                <g id="Page-1" transform="translate(663.000000, 132.000000)">
                    <path d="M79.9890984,26.5208214 L75.7378689,26.5208214 C75.7378689,24.5692857 75.447541,22.64425 74.8744262,20.8006071 C72.4047541,12.7578571 64.9881967,7.28182143 56.6063934,7.314 C48.2415574,7.28560714 40.8344262,12.7408214 38.3496721,20.7608571 C37.7671311,22.6253214 37.4730328,24.5692857 37.474918,26.5227143 L33.2236885,26.5227143 C33.2236885,24.1206786 33.5837705,21.7508214 34.292623,19.4812857 C35.7631148,14.7642857 38.6852459,10.6359643 42.6404918,7.69257143 C46.6692623,4.66210714 51.5709016,3.03046429 56.6045082,3.04560714 C61.647541,3.03046429 66.5586066,4.66778571 70.5911475,7.70771429 C74.5331967,10.6757143 77.4515574,14.8116071 78.9333607,19.5305 C79.6327869,21.7848929 79.9890984,24.1377143 79.9890984,26.5208214" id="Fill-1" fill="#FFFFFF"></path>
                    <path d="M52.5719672,15.8526786 C47.8927869,6.42814286 38.6041803,0 27.8940984,0 C12.4954098,0 0,13.3048929 0,29.7159643 C0,37.312 2.67893443,44.2398571 7.08098361,49.4906429 C7.08098361,49.4906429 18.422623,19.7254643 52.5719672,15.8526786" id="Fill-3" fill="#FFDEA6"></path>
                    <path d="M52.5719672,15.8526786 C18.4245082,19.7254643 7.08098361,49.4925357 7.08098361,49.4925357 C28.1354098,47.4615 45.6229508,34.0449286 52.5719672,15.8526786" id="Fill-5" fill="#49426E"></path>
                    <path d="M60.5484426,15.8526786 C65.2257377,6.42814286 74.5181148,0 85.2263115,0 C100.630656,0 113.118525,13.3048929 113.118525,29.7159643 C113.118525,37.312 110.441475,44.2398571 106.039426,49.4906429 C106.039426,49.4906429 94.6959016,19.7254643 60.5484426,15.8526786" id="Fill-7" fill="#FFDEA6"></path>
                    <path d="M60.5484426,15.8526786 C94.6940164,19.7254643 106.039426,49.4925357 106.039426,49.4925357 C84.9868852,47.4615 67.497459,34.0449286 60.5484426,15.8526786" id="Fill-9" fill="#49426E"></path>
                    <path d="M76.1507377,106 L69.8144262,103.041464 C72.2595902,97.0903214 71.1265574,95.1861071 69.4109836,92.3013929 C67.4427869,88.9926786 64.7487705,84.4630714 68.4438525,75.5496071 C69.5052459,72.9904643 68.9679508,72.0970357 67.5238525,69.7006786 C65.6197541,66.5358214 63.012459,62.1992857 65.4086066,54.0240357 C67.8877049,45.5307857 62.2206557,35.41725 62.1622131,35.3150357 L68.0441803,31.4384643 C68.3495902,31.9608929 75.4663934,44.4102143 72.0107377,56.2178571 C70.5798361,61.1146786 71.744918,63.0453929 73.354918,65.7237857 C75.0384426,68.5176429 77.3384426,72.3468929 74.7782787,78.5289643 C72.5744262,83.8422143 73.584918,85.5382143 75.2533607,88.3547857 C77.2894262,91.7732857 80.0758197,96.4581071 76.1507377,106" id="Fill-11" fill="#4A90E2"></path>
                    <path d="M41.9693443,105.856143 C37.8142623,96.4259286 40.4781148,91.6635 42.427459,88.1882143 C44.0336885,85.33 45.0008197,83.6037143 42.665,78.3586071 C39.9502459,72.2484643 42.1559836,68.3586429 43.7716393,65.5155714 C45.3137705,62.7955357 46.4279508,60.8269643 44.8763934,55.9755714 C41.1285246,44.26825 47.932377,31.6239643 48.2245902,31.0882857 L54.2045902,34.8039643 L51.2164754,32.9489643 L54.2083607,34.7982857 C54.1536885,34.9023929 48.7072131,45.1067857 51.4257377,53.6000357 C54.0179508,61.70525 51.5162295,66.1118214 49.6894262,69.3296786 C48.307541,71.7657857 47.7947541,72.67625 48.9183607,75.2051071 C52.8340164,84.0087857 50.2512295,88.6122143 48.3678689,91.9739286 C46.7220492,94.9059643 45.6342623,96.8423571 48.2340164,102.723464 L41.9693443,105.856143" id="Fill-13" fill="#ED4C5C"></path>
                    <path d="M7.07532787,101.245143 C5.49360656,91.0558929 9.29614754,87.1509286 12.0731148,84.3002857 C14.359918,81.9550357 15.739918,80.5410714 14.8368852,74.8643929 C13.7868033,68.2621071 16.9238525,65.0745357 19.2144262,62.7482143 C21.405082,60.5241071 22.992459,58.9132857 22.7398361,53.8215 C22.1403279,41.53875 31.97,31.0958571 32.3922951,30.6567143 L37.2109836,35.7996071 L34.8016393,33.2291071 L37.2166393,35.7920357 C37.137459,35.8772143 29.2439344,44.3193571 29.6813115,53.2290357 C30.0960656,61.73175 26.5461475,65.3395357 23.9501639,67.9743929 C21.987623,69.9656786 21.2561475,70.7095714 21.6916393,73.44475 C23.207377,82.9677143 19.5236066,86.7420714 16.8390164,89.4999643 C14.4937705,91.9038929 12.9440984,93.492 13.9357377,99.8482143 L7.07532787,101.245143" id="Fill-15" fill="#00FFEB"></path>
                    <path d="M108.48459,101.245143 C110.066311,91.0558929 106.26377,87.1509286 103.486803,84.3002857 C101.198115,81.9550357 99.82,80.5410714 100.721148,74.8643929 C101.773115,68.2621071 98.6341803,65.0745357 96.3454918,62.7482143 C94.1529508,60.5241071 92.5693443,58.9132857 92.8181967,53.8215 C93.4177049,41.53875 83.5880328,31.0958571 83.1657377,30.6567143 L78.3489344,35.7996071 L80.7582787,33.2291071 L78.3432787,35.7920357 C78.422459,35.8772143 86.3140984,44.3193571 85.8786066,53.2290357 C85.4619672,61.73175 89.0137705,65.3395357 91.6078689,67.9743929 C93.5722951,69.9656786 94.3018852,70.7095714 93.8682787,73.44475 C92.352541,82.9677143 96.0363115,86.7420714 98.7190164,89.4999643 C101.064262,91.9038929 102.613934,93.492 101.62418,99.8482143 L108.48459,101.245143" id="Fill-17" fill="#50E3C2"></path>
                    <path d="M84.1536066,98.368 L89.485082,93.0131071 L94.8184426,98.368 L89.485082,103.721 L84.1536066,98.368 Z M31.180082,59.0249643 L36.5115574,53.6719643 L41.8430328,59.0249643 L36.5115574,64.3779643 L31.180082,59.0249643 Z" id="Fill-19" fill="#4A90E2"></path>
                    <path d="M52.4494262,46.8993214 L57.7809016,41.5463214 L63.112377,46.8993214 L57.7809016,52.2542143 L52.4494262,46.8993214 Z M26.2859836,77.65825 L31.6193443,72.30525 L36.9508197,77.65825 L31.6193443,83.0131429 L26.2859836,77.65825 Z" id="Fill-21" fill="#50E3C2"></path>
                    <path d="M79.6195902,78.6292857 L84.9510656,73.2762857 L90.2844262,78.6311786 L84.9510656,83.9841786 L79.6195902,78.6292857 Z M20.9545082,98.3661071 L26.2859836,93.0131071 L31.6193443,98.3661071 L26.2859836,103.721 L20.9545082,98.3661071 Z" id="Fill-23" fill="#ED4C5C"></path>
                    <path d="M74.2881148,59.8142857 L79.6214754,54.4593929 L84.9510656,59.8142857 L79.6195902,65.1672857 L74.2881148,59.8142857 Z M52.447541,97.5427143 L57.7790164,92.1878214 L63.1104918,97.5427143 L57.7790164,102.895714 L52.447541,97.5427143 Z" id="Fill-25" fill="#00FFEB"></path>
                    <polygon id="Fill-27" fill="#ED4C5C" points="53.7822951 73.9728571 59.1137705 68.6179643 64.4471311 73.9728571 59.1137705 79.3258571"></polygon>
                </g>
            </g>
        </g>
    </g>
</svg>