<?xml version="1.0" encoding="UTF-8"?>
<svg width="164px" height="164px" viewBox="0 0 164 164" version="1.1" xmlns="http://www.w3.org/2000/svg" xmlns:xlink="http://www.w3.org/1999/xlink">
    <!-- Generator: Sketch 43.2 (39069) - http://www.bohemiancoding.com/sketch -->
    <title>Page 1</title>
    <desc>Created with Sketch.</desc>
    <defs></defs>
    <g id="Grid" stroke="none" stroke-width="1" fill="none" fill-rule="evenodd">
        <g id="Homepage-V1-Copy-3" transform="translate(-54.000000, -656.000000)" fill="#49426E">
            <g id="Page-1" transform="translate(54.000000, 656.000000)">
                <path d="M81.9055504,156.62838 C40.7032438,156.62838 7.18260146,123.107737 7.18260146,81.9054307 C7.18260146,40.7031241 40.7032438,7.18248175 81.9055504,7.18248175 C123.107857,7.18248175 156.628499,40.7031241 156.628499,81.9054307 C156.628499,123.107737 123.107857,156.62838 81.9055504,156.62838 M81.9055504,0 C36.6702803,0 0.000119708029,36.6701606 0.000119708029,81.9054307 C0.000119708029,127.140701 36.6702803,163.810861 81.9055504,163.810861 C127.14082,163.810861 163.810981,127.140701 163.810981,81.9054307 C163.810981,36.6701606 127.14082,0 81.9055504,0" id="Fill-1"></path>
                <path d="M48.3481577,96.2239474 C46.2640409,98.5079766 43.6232818,99.6499912 40.4234861,99.6499912 C36.9256175,99.6499912 34.1974715,98.5331153 32.2378511,96.2981664 C30.2782307,94.0644146 29.299019,91.2428964 29.299019,87.8360058 C29.299019,84.4291153 30.2746394,81.6087942 32.2282745,79.3738453 C34.1807124,77.1400934 36.9136467,76.0232175 40.4234861,76.0232175 C43.6232818,76.0232175 46.2640409,77.1652321 48.3481577,79.4480642 C50.4322745,81.7332905 51.4725372,84.528473 51.4725372,87.8360058 C51.4725372,91.1447358 50.4322745,93.9399182 48.3481577,96.2239474 L48.3481577,96.2239474 Z M50.7111942,72.9790423 L50.3389022,73.346546 L49.948654,72.9718599 C47.4180263,70.4268672 44.118873,69.1531737 40.0511942,69.1531737 C34.9588146,69.1531737 30.6337635,70.9068964 27.0748438,74.4131445 C23.5183182,77.9193927 21.7394569,82.3940788 21.7394569,87.8360058 C21.7394569,93.2791299 23.5183182,97.7538161 27.0748438,101.260064 C30.6337635,104.767509 34.9588146,106.520035 40.0511942,106.520035 C44.1057051,106.520035 47.4048584,105.248736 49.948654,102.703743 L50.3389022,102.331451 L50.7111942,102.748035 L51.4725372,105.847276 L58.7615591,105.847276 L58.7615591,69.9348672 L51.4725372,69.9348672 L50.7111942,72.9790423 Z" id="Fill-3"></path>
                <path d="M88.6307474,95.199965 C87.7915942,96.2928993 86.596908,97.3068263 85.0466891,98.2441401 C83.4964701,99.181454 81.7750686,99.6495124 79.8836818,99.6495124 C77.4967036,99.6495124 75.3814628,98.8247241 73.5331708,97.1739504 C71.6848788,95.5231766 70.7607328,93.425892 70.7607328,90.8808993 C70.7607328,86.6599942 73.983273,82.825746 80.4259591,79.3745635 L91.4223387,90.9551182 C90.4024263,92.6932788 89.4722949,94.1082277 88.6307474,95.199965 M78.5345723,58.5106511 C79.6837693,57.4751766 81.154981,56.9568409 82.9470102,56.9568409 C84.7378423,56.9568409 86.209054,57.4751766 87.3594482,58.5118482 C88.5062511,59.5473226 89.0820467,60.9670599 89.0820467,62.7698628 C89.0940175,65.5782131 86.7956234,68.215381 82.1868642,70.6789723 L81.1023095,69.6087825 C80.3888496,68.9060964 79.8800905,68.3686073 79.5760321,67.9951182 C79.2695796,67.6216292 78.8470102,67.1068847 78.3107182,66.4508847 C77.7732292,65.7960818 77.3889664,65.1544467 77.1579299,64.5295708 C76.9268934,63.9046949 76.8119737,63.3169285 76.8119737,62.7662715 C76.8119737,60.9646657 77.3853752,59.5461255 78.5345723,58.5106511 M105.19355,71.7120526 C103.208791,72.9043445 101.377258,74.8424175 99.701346,77.5358482 L95.3499591,84.5519358 L87.0960905,75.8563445 L87.1703095,75.7809285 C89.9942219,74.2654248 92.2782511,72.3093956 94.0235942,69.9128409 C95.7689372,67.5162861 96.6404117,65.0048117 96.6404117,62.3796146 C96.6404117,58.5908555 95.3308058,55.467673 92.7103971,53.0100672 C90.0923825,50.5524613 86.8375212,49.3230599 82.9470102,49.3230599 C79.0564993,49.3230599 75.801638,50.5524613 73.1824263,53.0100672 C70.5620175,55.467673 69.2536088,58.5896584 69.2536088,62.3796146 C69.2536088,65.6548263 71.3413168,69.6123737 75.5203241,74.253454 L75.2988642,74.4222423 C67.2341343,78.8406657 63.2023679,84.3268847 63.2023679,90.8808993 C63.2023679,95.4609285 64.7442073,99.2125781 67.8302803,102.135848 C70.9151562,105.057921 74.9086161,106.520753 79.8094628,106.520753 C86.4580467,106.520753 91.8317401,104.051177 96.4704263,96.1959358 L105.522747,105.846797 L110.685755,100.759206 L100.435156,89.9483737 L105.80885,81.3700964 C106.366689,80.4639066 106.885025,79.7061547 107.36266,79.1411328 C107.840295,78.577308 108.551361,78.2086073 109.495857,77.7058336 C110.437959,77.2030599 111.493784,77.1168701 112.660937,77.1168701 L115.025171,77.1168701 L115.025171,69.9343883 L112.660937,69.9343883 C109.668236,69.9343883 107.180704,70.5209577 105.19355,71.7120526" id="Fill-5"></path>
                <path d="M125.798654,54.3723445 C123.154304,54.3723445 121.010333,56.5163153 121.010333,59.1606657 C121.010333,61.8050161 123.154304,63.9489869 125.798654,63.9489869 C128.443004,63.9489869 130.586975,61.8050161 130.586975,59.1606657 C130.586975,56.5163153 128.443004,54.3723445 125.798654,54.3723445" id="Fill-7"></path>
                <path d="M122.207413,103.207834 C122.207413,109.760651 120.146041,113.919308 115.761136,116.811454 L121.242566,122.611308 C125.908785,119.107454 129.389895,113.532651 129.389895,105.18541 L129.389895,69.9337898 L122.207413,69.9337898 L122.207413,103.207834 Z" id="Fill-9"></path>
            </g>
        </g>
    </g>
</svg>