<?xml version="1.0" encoding="UTF-8"?>
<svg width="96px" height="104px" viewBox="0 0 96 104" version="1.1" xmlns="http://www.w3.org/2000/svg" xmlns:xlink="http://www.w3.org/1999/xlink">
    <!-- Generator: Sketch 43.2 (39069) - http://www.bohemiancoding.com/sketch -->
    <title>Page 1</title>
    <desc>Created with Sketch.</desc>
    <defs>
        <polygon id="path-1" points="0 106.115702 106 106.115702 106 0 0 0"></polygon>
    </defs>
    <g id="Grid" stroke="none" stroke-width="1" fill="none" fill-rule="evenodd">
        <g id="Homepage-V1-Copy-3" transform="translate(-669.000000, -3584.000000)">
            <g id="Where-to-Stay" transform="translate(0.000000, 3474.000000)">
                <g id="Intro" transform="translate(252.000000, 110.000000)">
                    <g id="Page-1" transform="translate(417.000000, 0.000000)">
                        <polygon id="Fill-1" fill="#FFD6B7" points="53.6748667 16.3895702 59.6992 16.3895702 59.6992 4.90961983 53.6748667 4.90961983"></polygon>
                        <polygon id="Fill-2" fill="#AB9584" points="59.6992 16.3895702 63.7148333 16.3895702 63.7148333 4.90961983 59.6992 4.90961983"></polygon>
                        <polygon id="Fill-3" fill="#FFD6B7" points="51.6644 4.90961983 61.7079 4.90961983 61.7079 0.884297521 51.6644 0.884297521"></polygon>
                        <polygon id="Fill-4" fill="#AB9584" points="61.7079 4.90961983 65.7253 4.90961983 65.7253 0.884297521 61.7079 0.884297521"></polygon>
                        <polygon id="Fill-5" fill="#92FFF4" points="39.28413 0.883766942 1.24956333 22.6657835 77.3204633 22.6657835"></polygon>
                        <polygon id="Fill-6" fill="#FFFFFF" points="12.0292333 56.347438 66.5397333 56.347438 66.5397333 22.6645455 12.0292333 22.6645455"></polygon>
                        <polygon id="Fill-7" fill="#4A90E2" points="32.4819333 46.3212727 46.0835 46.3212727 46.0835 32.6889421 32.4819333 32.6889421"></polygon>
                        <path d="M40.1316,46.3212727 L46.0835,46.3212727 L46.0835,40.3558017 L40.1316,40.3558017 L40.1316,46.3212727 Z M32.4819333,46.3212727 L38.4303,46.3212727 L38.4303,40.3558017 L32.4819333,40.3558017 L32.4819333,46.3212727 Z M32.4819333,38.650876 L38.4303,38.650876 L38.4303,32.6889421 L32.4819333,32.6889421 L32.4819333,38.650876 Z M40.1298333,38.650876 L46.0817333,38.650876 L46.0817333,32.6889421 L40.1298333,32.6889421 L40.1298333,38.650876 Z M30.7824,48.0208926 L47.7848,48.0208926 L47.7848,30.9875537 L30.7824,30.9875537 L30.7824,48.0208926 Z" id="Fill-8" fill="#FFD6B7"></path>
                        <polygon id="Fill-9" fill="#FFFFFF" points="7.70973333 103.683884 88.351 103.683884 88.351 69.6119008 7.70973333 69.6119008"></polygon>
                        <polygon id="Fill-10" fill="#4A90E2" points="61.6125 93.4631736 75.2140667 93.4631736 75.2140667 79.8343802 61.6125 79.8343802"></polygon>
                        <path d="M69.2639333,93.4631736 L75.2140667,93.4631736 L75.2140667,87.5030083 L69.2639333,87.5030083 L69.2639333,93.4631736 Z M61.6125,93.4631736 L67.5608667,93.4631736 L67.5608667,87.5030083 L61.6125,87.5030083 L61.6125,93.4631736 Z M61.6125,85.7945455 L67.5608667,85.7945455 L67.5608667,79.8343802 L61.6125,79.8343802 L61.6125,85.7945455 Z M69.2639333,85.7945455 L75.2140667,85.7945455 L75.2140667,79.8343802 L69.2639333,79.8343802 L69.2639333,85.7945455 Z M59.9147333,95.1680992 L76.9171333,95.1680992 L76.9171333,78.1294545 L59.9147333,78.1294545 L59.9147333,95.1680992 Z" id="Fill-11" fill="#FFD6B7"></path>
                        <polygon id="Fill-12" fill="#AB9584" points="29.0104333 82.8126942 43.8893 82.8126942 43.8893 103.683884 29.0104333 103.683884"></polygon>
                        <polygon id="Fill-13" fill="#FFD6B7" points="27.5246667 82.8144628 45.3803667 82.8144628 45.3803667 79.8343802 27.5246667 79.8343802"></polygon>
                        <g id="Group-25" transform="translate(0.000000, 0.884298)">
                            <path d="M41.2852333,89.7544298 C41.9018,89.7544298 42.4017667,90.2549421 42.4017667,90.8721818 C42.4017667,91.4894215 41.9018,91.9899339 41.2852333,91.9899339 C40.6686667,91.9899339 40.1687,91.4894215 40.1687,90.8721818 C40.1687,90.2549421 40.6686667,89.7544298 41.2852333,89.7544298 Z" id="Fill-14" fill="#FFD6B7"></path>
                            <mask id="mask-2" fill="white">
                                <use xlink:href="#path-1"></use>
                            </mask>
                            <g id="Clip-17"></g>
                            <polygon id="Fill-18" fill="#92FFF4" mask="url(#mask-2)" points="84.164 55.4631405 11.8967333 55.4631405 0 68.7276033 96.0625 68.7276033"></polygon>
                        </g>
                    </g>
                </g>
            </g>
        </g>
    </g>
</svg>