<?xml version="1.0" encoding="UTF-8"?>
<svg width="89px" height="89px" viewBox="0 0 89 89" version="1.1" xmlns="http://www.w3.org/2000/svg" xmlns:xlink="http://www.w3.org/1999/xlink">
    <!-- Generator: Sketch 43.2 (39069) - http://www.bohemiancoding.com/sketch -->
    <title>Page 1</title>
    <desc>Created with Sketch.</desc>
    <defs></defs>
    <g id="Grid" stroke="none" stroke-width="1" fill="none" fill-rule="evenodd">
        <g id="Homepage-V1-Copy-3" transform="translate(-676.000000, -926.000000)">
            <g id="Page-1" transform="translate(676.000000, 926.000000)">
                <path d="M89,44.4988133 C89,69.0761633 69.0758667,89.0002967 44.5029667,89.0002967 C19.9271,89.0002967 0,69.0761633 0,44.4988133 C0,19.92443 19.9271,0.000296666667 44.5029667,0.000296666667 C69.0758667,0.000296666667 89,19.92443 89,44.4988133" id="Fill-1" fill="#FFF1D8"></path>
                <path d="M40.0529667,4.03941333 C37.0922333,0.29103 32.3900667,-1.12852 27.5544,0.979296667 C22.8314667,3.03074667 19.8395833,7.02833 17.8786167,12.4143133 C14.3838833,8.87508 10.7838333,7.32796333 6.84558333,8.40634667 C3.24108333,9.39128 0.91225,12.7050467 0.225466667,16.6432967 C-0.455383333,20.5667133 0.310016667,25.17543 4.00055,29.8049133 C7.7786,34.5322967 23.1948833,44.1650633 23.7333333,44.5002967 C24.1308667,44.0686467 37.9733333,29.1566967 41.0616333,21.8008467 C44.3576,13.9451133 43.1323667,7.93909667 40.0529667,4.03941333 M88.7745333,16.6418133 C88.08775,12.7050467 85.7618833,9.38979667 82.1544167,8.40486333 C78.21765,7.32648 74.6161167,8.87359667 71.1213833,12.4143133 C69.1633833,7.02833 66.1700167,3.03074667 61.45005,0.979296667 C56.6158667,-1.12852 51.9166667,0.29103 48.9529667,4.03941333 C45.8735667,7.93909667 44.6483333,13.9451133 47.9443,21.80233 C51.0326,29.15818 64.8721,44.0686467 65.2726,44.5002967 C65.81105,44.16358 81.2243667,34.5308133 84.99945,29.80343 C88.69295,25.1739467 89.45835,20.56523 88.7745333,16.6418133" id="Fill-3" fill="#F26C77"></path>
                <path d="M69.7166667,53.4759467 C69.7166667,52.28483 69.0135667,50.7925967 67.0140333,50.41138 C61.8757667,49.4294133 54.2840667,48.41778 44.4985167,48.41778 L44.4970333,48.41778 C34.71445,48.41778 27.1212667,49.4294133 21.9844833,50.41138 C19.9819833,50.79408 19.28185,52.2863133 19.28185,53.4759467 C19.28185,64.2612633 27.6048333,75.11778 44.4970333,75.11778 L44.4985167,75.11778 C61.3922,75.11778 69.7166667,64.2612633 69.7166667,53.4759467" id="Fill-6" fill="#49426E"></path>
                <path d="M63.3235,53.82008 C60.0675833,53.2756967 53.1804667,52.3189467 44.5,52.3189467 C35.8165667,52.3189467 28.9309333,53.2756967 25.6750167,53.82008 C23.7555833,54.14493 23.6384,54.92368 23.7719,56.0243133 C23.852,56.68143 23.9751167,57.4705633 24.1649833,58.32793 C24.3756167,59.2787467 24.5536167,59.71633 26.0428833,59.53833 C28.8923667,59.1986467 60.1120833,59.1986467 62.9600833,59.53833 C64.44935,59.7148467 64.6258667,59.2772633 64.8379833,58.32793 C65.0263667,57.4705633 65.1509667,56.6829133 65.2310667,56.0243133 C65.3601167,54.92368 65.2429333,54.14493 63.3235,53.82008" id="Fill-8" fill="#FFFFFF"></path>
            </g>
        </g>
    </g>
</svg>