<?xml version="1.0" encoding="UTF-8"?>
<svg width="141px" height="119px" viewBox="0 0 141 119" version="1.1" xmlns="http://www.w3.org/2000/svg" xmlns:xlink="http://www.w3.org/1999/xlink">
    <!-- Generator: Sketch 43.2 (39069) - http://www.bohemiancoding.com/sketch -->
    <title>Page 1</title>
    <desc>Created with Sketch.</desc>
    <defs></defs>
    <g id="Grid" stroke="none" stroke-width="1" fill="none" fill-rule="evenodd">
        <g id="Homepage-V1-Copy-3" transform="translate(-649.000000, -4892.000000)">
            <g id="Transportation" transform="translate(0.000000, 4768.000000)">
                <g id="Page-1" transform="translate(649.000000, 124.000000)">
                    <path d="M68.068008,57.5460902 C69.4966373,59.7556906 69.2549028,62.479406 67.5148498,63.625773 C65.7704412,64.7765154 63.2028286,63.9211156 61.767666,61.7115152 C60.3303256,59.5019148 60.5742379,56.7760116 62.3121131,55.6296447 C64.0521661,54.4767145 66.6219565,55.334302 68.068008,57.5460902" id="Fill-1" fill="#3E4347"></path>
                    <path d="M68.2857869,37.8368918 C68.2857869,37.8368918 65.2238163,33.1354746 62.7607376,29.346338 C60.3020144,25.5572014 60.6308604,23.0566337 63.507719,23.7851456 C66.3758664,24.5136574 72.1709615,27.5458418 76.376271,30.5123944 C78.2774804,31.8622197 84.0137752,35.9138831 84.0137752,35.9138831 C88.2212625,38.878248 87.6441485,40.4774737 82.7419467,39.4558069 L68.2857869,37.8368918 Z" id="Fill-3" fill="#49426E"></path>
                    <path d="M122.351563,63.855484 C123.780192,66.0650844 123.538458,68.7909875 121.798405,69.9373545 C120.056174,71.0880969 117.484206,70.2326971 116.053399,68.0230967 C114.616059,65.815684 114.859971,63.0875931 116.597846,61.9412261 C118.335721,60.7904837 120.909867,61.6415081 122.351563,63.855484 M76.4873382,58.3314828 C77.920323,60.543271 77.6742329,63.2669864 75.93418,64.4133534 C74.194127,65.5640958 71.619981,64.7043206 70.1869962,62.4990956 C68.7518336,60.2873074 68.9957459,57.563592 70.7357989,56.4194127 C72.4714963,55.2664826 75.0456423,56.1218824 76.4873382,58.3314828" id="Fill-5" fill="#3E4347"></path>
                    <path d="M121.077557,65.7413014 L119.936396,51.2016929 C119.738217,48.7536306 115.981532,49.153984 116.171,51.5889199 C116.549935,56.4347268 116.933226,61.2827215 117.316516,66.1285284 C117.508162,68.5787784 121.27138,68.178425 121.077557,65.7413014" id="Fill-7" fill="#94989B"></path>
                    <path d="M9.63141026,26.8260808 C9.63141026,26.8260808 3.72307016,23.9295353 2.17684035,26.8151422 C-1.65606734,33.9668094 4.01924939,52.9343697 135.283271,60.0269683 C143.07322,60.4491989 142.273972,55.0652121 134.897803,49.1321067 C112.638627,31.2059027 144.199137,38.5128982 9.63141026,26.8260808" id="Fill-9" fill="#FFFFFF"></path>
                    <path d="M126.633095,44.4044369 C125.078154,45.2029558 117.965497,46.165554 117.965497,46.165554 C117.965497,46.165554 117.976386,48.1957612 120.970845,49.0817891 C123.558058,49.8562431 127.053409,49.0883523 129.749511,47.517567 L126.633095,44.4044369 Z" id="Fill-12" fill="#3E4347"></path>
                    <path d="M37.9513714,29.2894572 C37.9513714,29.2894572 20.3439517,9.09895962 14.729613,2.17481565 C11.1907068,-2.19406761 5.80721372,1.3697335 5.80721372,1.3697335 C5.80721372,1.3697335 1.16634651,26.9792215 2.32492997,27.077669 L36.8690105,30.6611596 C38.0254162,30.7705458 38.5132408,30.1470447 37.9513714,29.2894572" id="Fill-14" fill="#49426E"></path>
                    <path d="M84.9044906,59.1212509 C86.3374754,61.3264759 86.0957409,64.0567545 84.3556879,65.198746 C82.615635,66.3494884 80.0393112,65.4897132 78.6085042,63.2888636 C77.168986,61.0770755 77.4128983,58.3489846 79.1551291,57.2026177 C80.8930043,56.0496875 83.4627947,56.9094627 84.9044906,59.1212509" id="Fill-17" fill="#3E4347"></path>
                    <path d="M82.3325225,60.4098199 C78.1511686,56.598806 73.9632814,52.7877922 69.7819276,48.9745906 C69.3311254,48.561111 68.5601882,48.8039482 68.3271649,49.3377527 C66.9028912,52.6434025 65.4720842,55.9468645 64.0456328,59.2525143 C63.9694102,59.4340953 63.9541656,59.6353659 64.002077,59.8278855 C64.0260327,60.2326143 64.3570565,60.5520219 64.7599474,60.5607728 L81.5898966,62.0834281 C82.110388,62.155623 82.5895015,61.7902732 82.6613685,61.2695951 C82.7049243,60.9458121 82.5807904,60.6198413 82.3325225,60.4098199" id="Fill-19" fill="#94989B"></path>
                    <path d="M56.3275504,64.4921114 C56.3275504,64.4921114 37.8773266,54.8551906 18.3207862,59.4275322 C17.2014029,59.690059 14.6468571,60.6373431 16.2497094,63.0985317 C19.7842601,67.0254949 29.0790612,74.2712342 50.8417013,76.8308703 L56.3275504,64.4921114 Z" id="Fill-21" fill="#C5D0D8"></path>
                    <path d="M51.4057485,76.8089931 C49.6177842,76.3955134 49.0972928,73.2167516 50.2384539,69.751398 C51.3839706,66.2751058 53.7642934,63.7811014 55.5544355,64.2011442 C57.3445777,64.6277502 57.8694247,67.7824471 56.7217302,71.2565516 C55.580569,74.7394069 53.1980684,77.2334114 51.4057485,76.8089931" id="Fill-23" fill="#94989B"></path>
                    <path d="M52.5294874,71.7400384 C53.357047,69.2416585 53.3047801,66.9161087 52.5512653,65.6516047 C51.6300607,66.6492065 50.7959678,68.0799775 50.2384539,69.7535857 C49.4108943,72.2519656 49.4675168,74.5840786 50.2210316,75.8529581 C51.1422361,74.8531685 51.9828625,73.4223976 52.5294874,71.7400384" id="Fill-25" fill="#3E4347"></path>
                    <path d="M64.5595908,45.3889123 C59.1194753,44.5991442 56.527907,44.3563069 51.7563725,46.7146726 L17.9244287,62.1118685 C13.1485386,64.4746096 13.5993408,67.506794 18.919678,68.8609947 C24.2465486,70.2173831 32.7595237,69.981109 37.8468376,68.3534429 L86.2002748,52.8468607 C91.2854108,51.2191947 90.995765,49.2349297 85.549116,48.4429739 L64.5595908,45.3889123" id="Fill-27" fill="#49426E"></path>
                    <path d="M43.4197982,36.2092257 C44.4629589,36.2092257 45.3101186,37.06025 45.3101186,38.1081694 C45.3101186,39.1560889 44.4629589,40.0071132 43.4197982,40.0071132 C42.3766376,40.0071132 41.5294779,39.1560889 41.5294779,38.1081694 C41.5294779,37.06025 42.3766376,36.2092257 43.4197982,36.2092257" id="Fill-29" fill="#3E4347"></path>
                    <path d="M51.647483,36.878669 C50.6065002,36.7933478 49.691829,37.5699895 49.6047175,38.6157212 C49.5176059,39.6614529 50.2928986,40.5802967 51.3338815,40.6678056 C52.3748644,40.7553145 53.2895355,39.9764851 53.3766471,38.9307534 C53.4637586,37.8850217 52.6884659,36.9661779 51.647483,36.878669 Z" id="Fill-31" fill="#3E4347"></path>
                    <path d="M59.5724553,37.5327982 C60.6156159,37.5327982 61.4627756,38.3838226 61.4627756,39.431742 C61.4627756,40.4796614 60.6156159,41.3306857 59.5724553,41.3306857 C58.5292946,41.3306857 57.6821349,40.4796614 57.6821349,39.431742 C57.6821349,38.3838226 58.5292946,37.5327982 59.5724553,37.5327982" id="Fill-33" fill="#3E4347"></path>
                    <path d="M67.6455171,38.1978661 C68.6886778,38.1978661 69.5358375,39.0488904 69.5358375,40.0968098 C69.5358375,41.1447293 68.6886778,41.9957536 67.6455171,41.9957536 C66.6023564,41.9957536 65.7551967,41.1447293 65.7551967,40.0968098 C65.7551967,39.0488904 66.6023564,38.1978661 67.6455171,38.1978661" id="Fill-35" fill="#3E4347"></path>
                    <path d="M75.7272901,38.8585585 C76.7704507,38.8585585 77.6176104,39.7095828 77.6176104,40.7575023 C77.6176104,41.8054217 76.7704507,42.656446 75.7272901,42.656446 C74.6841294,42.656446 73.8369697,41.8054217 73.8369697,40.7575023 C73.8369697,39.7095828 74.6841294,38.8585585 75.7272901,38.8585585" id="Fill-37" fill="#3E4347"></path>
                    <path d="M83.7981741,39.5214386 C84.8413348,39.5214386 85.6884945,40.372463 85.6884945,41.4203824 C85.6884945,42.4683018 84.8413348,43.3193261 83.7981741,43.3193261 C82.7550134,43.3193261 81.9078537,42.4683018 81.9078537,41.4203824 C81.9078537,40.372463 82.7550134,39.5214386 83.7981741,39.5214386" id="Fill-39" fill="#3E4347"></path>
                    <path d="M99.9508311,40.8471989 C100.993992,40.8471989 101.838974,41.6960355 101.838974,42.7439549 C101.838974,43.7918744 100.993992,44.640711 99.9508311,44.640711 C98.9076704,44.640711 98.0626885,43.7918744 98.0626885,42.7439549 C98.0626885,41.6960355 98.9076704,40.8471989 99.9508311,40.8471989" id="Fill-41" fill="#3E4347"></path>
                    <path d="M68.5900184,105.028656 C106.129628,105.028656 136.562735,108.143417 136.562735,111.984029 C136.562735,115.824641 106.129628,118.939402 68.5900184,118.939402 C31.0504087,118.939402 0.617301839,115.824641 0.617301839,111.984029 C0.617301839,108.143417 31.0504087,105.028656 68.5900184,105.028656" id="Fill-43" fill="#2FB698"></path>
                </g>
            </g>
        </g>
    </g>
</svg>